# xmcd
#
# Track frame offsets:
#	150
#	23593
#	44047
#	67475
#	89339
#	105629
#	134108
#	152761
#	169121
#	190542
#	209157
#	227393
#	247821
#	269219
#	286734
#
# Disc length: 4206 seconds
#
# Revision: 1
# Processed by: cddbd v1.5.2PL0 Copyright (c) Steve Scherf et al.
# Submitted via: dBpowerAMP V4.0
#
DISCID=df106c0f
DTITLE=Various Artist - Pure Swing CD3
DYEAR=2010
DGENRE=R&B/Soul
TTITLE0=Jodeci - Feenin
TTITLE1=Soul For Real - Candy Rain
TTITLE2=Blackstreet - Don't Leave Me
TTITLE3=Joe - All The Things (Your Man Won't Do)
TTITLE4=Wayne Marshall - G Spot
TTITLE5=Jodeci - Freek'n You
TTITLE6=Levert Sweat Gill - My Body
TTITLE7=Changing Faces - Stroke You Up
TTITLE8=Tevin Campbell - Can We Talk
TTITLE9=Johnny Gill - My, My, My
TTITLE10=702 - Steelo
TTITLE11=Jodeci - Come and Talk To Me
TTITLE12=Shai - If I Ever Fall In Love
TTITLE13=Whitehead Bros. - Your Love Is A 187
TTITLE14=Aaron Hall - I Miss You
EXTD=
EXTT0=
EXTT1=
EXTT2=
EXTT3=
EXTT4=
EXTT5=
EXTT6=
EXTT7=
EXTT8=
EXTT9=
EXTT10=
EXTT11=
EXTT12=
EXTT13=
EXTT14=
PLAYORDER=
